<?xml version="1.0" encoding="utf-8"?>
<!-- Generator: Adobe Illustrator 19.2.1, SVG Export Plug-In . SVG Version: 6.00 Build 0)  -->
<svg version="1.1" id="layer" xmlns="http://www.w3.org/2000/svg" xmlns:xlink="http://www.w3.org/1999/xlink" x="0px" y="0px"
	 viewBox="0 0 652 652" style="enable-background:new 0 0 652 652;" xml:space="preserve">
<style type="text/css">
	.st0{fill:#0F146D;}
	.st1{fill:url(#Path_5_);}
	.st2{fill:#F624A0;}
	.st3{opacity:0.41;fill:#F58000;enable-background:new    ;}
</style>
<path class="st0" d="M234.9,278.1h15v72.3h25.9v14.3h-40.8L234.9,278.1z M310.5,299.8c8-0.1,15.5,3.5,20.4,9.8v-8.5h14v63.7h-14
	v-8.5c-4.9,6.3-12.4,9.9-20.4,9.8c-17.5,0-30.7-14.9-30.7-33.1C279.8,314.7,293.1,299.8,310.5,299.8z M313.1,312.6
	c-11.3,0-18.8,8.9-18.8,20.4c0,11.4,7.6,20.4,18.8,20.4c11.2,0,18.8-8.9,18.8-20.4S324.4,312.6,313.1,312.6z M355.8,353.7l33.4-39.9
	h-32.9v-12.7h51v11.2L374.1,352h34v12.7h-52.2V353.7z M443.7,299.8c8-0.1,15.5,3.5,20.4,9.8v-8.5h14v63.7h-14v-8.5
	c-4.9,6.3-12.4,9.9-20.4,9.8c-17.5,0-30.7-14.9-30.7-33.1C413,314.7,426.2,299.8,443.7,299.8z M446.2,312.6
	c-11.3,0-18.8,8.9-18.8,20.4c0,11.4,7.6,20.4,18.8,20.4c11.2,0,18.8-8.9,18.8-20.4S457.6,312.6,446.2,312.6z M518.1,299.8
	c7.9-0.1,15.5,3.5,20.4,9.8V273h14v91.8h-14v-8.5c-4.9,6.3-12.4,9.9-20.4,9.8c-17.5,0-30.7-14.9-30.7-33.1
	C487.4,314.7,500.6,299.8,518.1,299.8z M520.7,312.6c-11.3,0-18.8,8.9-18.8,20.4c0,11.4,7.7,20.4,18.8,20.4s18.8-8.9,18.8-20.4
	S532,312.6,520.7,312.6z M592.5,299.8c7.9-0.1,15.5,3.5,20.4,9.8v-8.5h14v63.7h-14v-8.5c-4.9,6.3-12.4,9.9-20.4,9.8
	c-17.5,0-30.7-14.9-30.7-33.1C561.7,314.7,575,299.8,592.5,299.8z M595,312.6c-11.3,0-18.8,8.9-18.8,20.4c0,11.4,7.7,20.4,18.8,20.4
	c11.2,0,18.8-8.9,18.8-20.4S606.4,312.6,595,312.6z"/>
<linearGradient id="Path_5_" gradientUnits="userSpaceOnUse" x1="-147.71" y1="595.8685" x2="-143.1469" y2="595.8685" gradientTransform="matrix(34.0091 0 0 -27.6176 5050.4063 16782.2578)">
	<stop  offset="0" style="stop-color:#FF9200"/>
	<stop  offset="0.29" style="stop-color:#F36D00"/>
	<stop  offset="0.32" style="stop-color:#F4680B"/>
	<stop  offset="0.57" style="stop-color:#F83C72"/>
	<stop  offset="0.78" style="stop-color:#FC1CBE"/>
	<stop  offset="0.93" style="stop-color:#FE08ED"/>
	<stop  offset="1" style="stop-color:#FF00FF"/>
</linearGradient>
<path id="Path_2_" class="st1" d="M104.4,388.7c-1.1,0-2.2-0.3-3.1-0.8c-8.2-4.7-68.9-42.8-71.2-44c-1.7-0.8-2.9-2.5-3.1-4.4v-53.4
	c0-2,0.9-3.9,2.6-5l0.4-0.3c5.9-3.6,25.5-15.6,28.6-17.4c0.7-0.4,1.5-0.7,2.4-0.7c0.8,0,1.5,0.2,2.2,0.6c0,0,27.5,17.9,31.7,19.5
	c3,1.4,6.2,2,9.4,2c3.7,0.1,7.3-0.8,10.6-2.6c4.1-2.2,30.4-18.8,30.7-18.8c0.7-0.4,1.4-0.6,2.2-0.6c0.8,0,1.6,0.2,2.4,0.7
	c3.6,2,28,16.9,29,17.6l0,0c1.7,1,2.8,2.9,2.7,4.9v53.4c-0.2,1.9-1.4,3.6-3.1,4.4c-2.3,1.3-62.8,39.3-71.2,44
	C106.6,388.4,105.5,388.7,104.4,388.7z"/>
<path id="Path_3_" class="st2" d="M104.1,388.7h0.3c1.1,0,2.2-0.3,3.1-0.8c8.2-4.7,68.9-42.8,71.2-44c1.8-0.8,2.9-2.5,3.1-4.4v-53.4
	c0-0.9-0.2-1.8-0.6-2.6l-77.2,42.4V388.7z"/>
<path id="Path_4_" class="st3" d="M26.8,339.4c0.2,1.9,1.5,3.6,3.3,4.4c2.3,1.3,63,39.3,71.2,44c0.8,0.5,1.8,0.8,2.8,0.8v-62.8
	l-76.9-41.7c-0.2,0.6-0.3,1.3-0.3,2V339.4z"/>
</svg>
